{
    "asset" : {
        "generator" : "Khronos glTF Blender I/O v1.2.75",
        "version" : "2.0"
    },
    "scene" : 0,
    "scenes" : [
        {
            "name" : "Scene",
            "nodes" : [
                0,
                1,
                2,
                3,
                4,
                5,
                6,
                7,
                8
            ]
        }
    ],
    "nodes" : [
        {
            "mesh" : 0,
            "name" : "Carriage",
            "translation" : [
                0,
                0.800000011920929,
                0
            ]
        },
        {
            "mesh" : 1,
            "name" : "Socket",
            "translation" : [
                -0.699999988079071,
                0.20000004768371582,
                -0.4000000059604645
            ]
        },
        {
            "mesh" : 2,
            "name" : "Whell",
            "translation" : [
                -0.699999988079071,
                0.12000000476837158,
                -0.4000000059604645
            ]
        },
        {
            "mesh" : 3,
            "name" : "Socket.002",
            "translation" : [
                0.699999988079071,
                0.20000004768371582,
                -0.4000000059604645
            ]
        },
        {
            "mesh" : 4,
            "name" : "Whell.002",
            "translation" : [
                0.699999988079071,
                0.12000000476837158,
                -0.4000000059604645
            ]
        },
        {
            "mesh" : 5,
            "name" : "Socket.003",
            "translation" : [
                0.699999988079071,
                0.20000004768371582,
                0.4000000059604645
            ]
        },
        {
            "mesh" : 6,
            "name" : "Whell.003",
            "translation" : [
                0.699999988079071,
                0.12000000476837158,
                0.4000000059604645
            ]
        },
        {
            "mesh" : 7,
            "name" : "Socket.004",
            "translation" : [
                -0.699999988079071,
                0.20000004768371582,
                0.4000000059604645
            ]
        },
        {
            "mesh" : 8,
            "name" : "Whell.004",
            "translation" : [
                -0.699999988079071,
                0.12000000476837158,
                0.4000000059604645
            ]
        }
    ],
    "materials" : [
        {
            "doubleSided" : true,
            "emissiveFactor" : [
                0,
                0,
                0
            ],
            "name" : "Wood",
            "pbrMetallicRoughness" : {
                "baseColorFactor" : [
                    0.19598834216594696,
                    0.08252143859863281,
                    0.011771613731980324,
                    1
                ],
                "metallicFactor" : 0,
                "roughnessFactor" : 0.4000000059604645
            }
        },
        {
            "doubleSided" : true,
            "emissiveFactor" : [
                0,
                0,
                0
            ],
            "name" : "Metal",
            "pbrMetallicRoughness" : {
                "baseColorFactor" : [
                    0.02909950166940689,
                    0.02909950166940689,
                    0.02909950166940689,
                    1
                ],
                "metallicFactor" : 0,
                "roughnessFactor" : 0.5
            }
        },
        {
            "doubleSided" : true,
            "emissiveFactor" : [
                0,
                0,
                0
            ],
            "name" : "Wheel",
            "pbrMetallicRoughness" : {
                "baseColorFactor" : [
                    0,
                    0,
                    0,
                    1
                ],
                "metallicFactor" : 0,
                "roughnessFactor" : 0.5
            }
        }
    ],
    "meshes" : [
        {
            "name" : "Cube.001",
            "primitives" : [
                {
                    "attributes" : {
                        "POSITION" : 0,
                        "NORMAL" : 1,
                        "TEXCOORD_0" : 2
                    },
                    "indices" : 3,
                    "material" : 0
                },
                {
                    "attributes" : {
                        "POSITION" : 4,
                        "NORMAL" : 5,
                        "TEXCOORD_0" : 6
                    },
                    "indices" : 7,
                    "material" : 1
                }
            ]
        },
        {
            "name" : "Cube.002",
            "primitives" : [
                {
                    "attributes" : {
                        "POSITION" : 8,
                        "NORMAL" : 9,
                        "TEXCOORD_0" : 10
                    },
                    "indices" : 11,
                    "material" : 1
                }
            ]
        },
        {
            "name" : "Cylinder",
            "primitives" : [
                {
                    "attributes" : {
                        "POSITION" : 12,
                        "NORMAL" : 13,
                        "TEXCOORD_0" : 14
                    },
                    "indices" : 15,
                    "material" : 2
                }
            ]
        },
        {
            "name" : "Cube.007",
            "primitives" : [
                {
                    "attributes" : {
                        "POSITION" : 16,
                        "NORMAL" : 17,
                        "TEXCOORD_0" : 18
                    },
                    "indices" : 11,
                    "material" : 1
                }
            ]
        },
        {
            "name" : "Cylinder.002",
            "primitives" : [
                {
                    "attributes" : {
                        "POSITION" : 19,
                        "NORMAL" : 20,
                        "TEXCOORD_0" : 21
                    },
                    "indices" : 15,
                    "material" : 2
                }
            ]
        },
        {
            "name" : "Cube.008",
            "primitives" : [
                {
                    "attributes" : {
                        "POSITION" : 22,
                        "NORMAL" : 23,
                        "TEXCOORD_0" : 24
                    },
                    "indices" : 11,
                    "material" : 1
                }
            ]
        },
        {
            "name" : "Cylinder.003",
            "primitives" : [
                {
                    "attributes" : {
                        "POSITION" : 25,
                        "NORMAL" : 26,
                        "TEXCOORD_0" : 27
                    },
                    "indices" : 15,
                    "material" : 2
                }
            ]
        },
        {
            "name" : "Cube.009",
            "primitives" : [
                {
                    "attributes" : {
                        "POSITION" : 28,
                        "NORMAL" : 29,
                        "TEXCOORD_0" : 30
                    },
                    "indices" : 11,
                    "material" : 1
                }
            ]
        },
        {
            "name" : "Cylinder.004",
            "primitives" : [
                {
                    "attributes" : {
                        "POSITION" : 31,
                        "NORMAL" : 32,
                        "TEXCOORD_0" : 33
                    },
                    "indices" : 15,
                    "material" : 2
                }
            ]
        }
    ],
    "accessors" : [
        {
            "bufferView" : 0,
            "componentType" : 5126,
            "count" : 16,
            "max" : [
                1,
                0.4000000059604645,
                0.6000000238418579
            ],
            "min" : [
                -1,
                -0.40000003576278687,
                -0.6000000238418579
            ],
            "type" : "VEC3"
        },
        {
            "bufferView" : 1,
            "componentType" : 5126,
            "count" : 16,
            "type" : "VEC3"
        },
        {
            "bufferView" : 2,
            "componentType" : 5126,
            "count" : 16,
            "type" : "VEC2"
        },
        {
            "bufferView" : 3,
            "componentType" : 5123,
            "count" : 24,
            "type" : "SCALAR"
        },
        {
            "bufferView" : 4,
            "componentType" : 5126,
            "count" : 138,
            "max" : [
                1.0199999809265137,
                0.5,
                0.6200000047683716
            ],
            "min" : [
                -1.0199999809265137,
                -0.5,
                -0.6200000047683716
            ],
            "type" : "VEC3"
        },
        {
            "bufferView" : 5,
            "componentType" : 5126,
            "count" : 138,
            "type" : "VEC3"
        },
        {
            "bufferView" : 6,
            "componentType" : 5126,
            "count" : 138,
            "type" : "VEC2"
        },
        {
            "bufferView" : 7,
            "componentType" : 5123,
            "count" : 228,
            "type" : "SCALAR"
        },
        {
            "bufferView" : 8,
            "componentType" : 5126,
            "count" : 112,
            "max" : [
                0.10000000149011612,
                0.10000002384185791,
                0.09999999403953552
            ],
            "min" : [
                -0.10000000149011612,
                -0.14999990165233612,
                -0.09999999403953552
            ],
            "type" : "VEC3"
        },
        {
            "bufferView" : 9,
            "componentType" : 5126,
            "count" : 112,
            "type" : "VEC3"
        },
        {
            "bufferView" : 10,
            "componentType" : 5126,
            "count" : 112,
            "type" : "VEC2"
        },
        {
            "bufferView" : 11,
            "componentType" : 5123,
            "count" : 168,
            "type" : "SCALAR"
        },
        {
            "bufferView" : 12,
            "componentType" : 5126,
            "count" : 168,
            "max" : [
                0.11999998986721039,
                0.12000009417533875,
                0.050000131130218506
            ],
            "min" : [
                -0.12000004947185516,
                -0.11999993026256561,
                -0.049999892711639404
            ],
            "type" : "VEC3"
        },
        {
            "bufferView" : 13,
            "componentType" : 5126,
            "count" : 168,
            "type" : "VEC3"
        },
        {
            "bufferView" : 14,
            "componentType" : 5126,
            "count" : 168,
            "type" : "VEC2"
        },
        {
            "bufferView" : 15,
            "componentType" : 5123,
            "count" : 276,
            "type" : "SCALAR"
        },
        {
            "bufferView" : 16,
            "componentType" : 5126,
            "count" : 112,
            "max" : [
                0.10000000149011612,
                0.10000002384185791,
                0.09999999403953552
            ],
            "min" : [
                -0.10000000149011612,
                -0.14999990165233612,
                -0.09999999403953552
            ],
            "type" : "VEC3"
        },
        {
            "bufferView" : 17,
            "componentType" : 5126,
            "count" : 112,
            "type" : "VEC3"
        },
        {
            "bufferView" : 18,
            "componentType" : 5126,
            "count" : 112,
            "type" : "VEC2"
        },
        {
            "bufferView" : 19,
            "componentType" : 5126,
            "count" : 168,
            "max" : [
                0.11999998986721039,
                0.12000009417533875,
                0.050000131130218506
            ],
            "min" : [
                -0.12000004947185516,
                -0.11999993026256561,
                -0.049999892711639404
            ],
            "type" : "VEC3"
        },
        {
            "bufferView" : 20,
            "componentType" : 5126,
            "count" : 168,
            "type" : "VEC3"
        },
        {
            "bufferView" : 21,
            "componentType" : 5126,
            "count" : 168,
            "type" : "VEC2"
        },
        {
            "bufferView" : 22,
            "componentType" : 5126,
            "count" : 112,
            "max" : [
                0.10000000149011612,
                0.10000002384185791,
                0.09999999403953552
            ],
            "min" : [
                -0.10000000149011612,
                -0.14999990165233612,
                -0.09999999403953552
            ],
            "type" : "VEC3"
        },
        {
            "bufferView" : 23,
            "componentType" : 5126,
            "count" : 112,
            "type" : "VEC3"
        },
        {
            "bufferView" : 24,
            "componentType" : 5126,
            "count" : 112,
            "type" : "VEC2"
        },
        {
            "bufferView" : 25,
            "componentType" : 5126,
            "count" : 168,
            "max" : [
                0.11999998986721039,
                0.12000009417533875,
                0.050000131130218506
            ],
            "min" : [
                -0.12000004947185516,
                -0.11999993026256561,
                -0.049999892711639404
            ],
            "type" : "VEC3"
        },
        {
            "bufferView" : 26,
            "componentType" : 5126,
            "count" : 168,
            "type" : "VEC3"
        },
        {
            "bufferView" : 27,
            "componentType" : 5126,
            "count" : 168,
            "type" : "VEC2"
        },
        {
            "bufferView" : 28,
            "componentType" : 5126,
            "count" : 112,
            "max" : [
                0.10000000149011612,
                0.10000002384185791,
                0.09999999403953552
            ],
            "min" : [
                -0.10000000149011612,
                -0.14999990165233612,
                -0.09999999403953552
            ],
            "type" : "VEC3"
        },
        {
            "bufferView" : 29,
            "componentType" : 5126,
            "count" : 112,
            "type" : "VEC3"
        },
        {
            "bufferView" : 30,
            "componentType" : 5126,
            "count" : 112,
            "type" : "VEC2"
        },
        {
            "bufferView" : 31,
            "componentType" : 5126,
            "count" : 168,
            "max" : [
                0.11999998986721039,
                0.12000009417533875,
                0.050000131130218506
            ],
            "min" : [
                -0.12000004947185516,
                -0.11999993026256561,
                -0.049999892711639404
            ],
            "type" : "VEC3"
        },
        {
            "bufferView" : 32,
            "componentType" : 5126,
            "count" : 168,
            "type" : "VEC3"
        },
        {
            "bufferView" : 33,
            "componentType" : 5126,
            "count" : 168,
            "type" : "VEC2"
        }
    ],
    "bufferViews" : [
        {
            "buffer" : 0,
            "byteLength" : 192,
            "byteOffset" : 0
        },
        {
            "buffer" : 0,
            "byteLength" : 192,
            "byteOffset" : 192
        },
        {
            "buffer" : 0,
            "byteLength" : 128,
            "byteOffset" : 384
        },
        {
            "buffer" : 0,
            "byteLength" : 48,
            "byteOffset" : 512
        },
        {
            "buffer" : 0,
            "byteLength" : 1656,
            "byteOffset" : 560
        },
        {
            "buffer" : 0,
            "byteLength" : 1656,
            "byteOffset" : 2216
        },
        {
            "buffer" : 0,
            "byteLength" : 1104,
            "byteOffset" : 3872
        },
        {
            "buffer" : 0,
            "byteLength" : 456,
            "byteOffset" : 4976
        },
        {
            "buffer" : 0,
            "byteLength" : 1344,
            "byteOffset" : 5432
        },
        {
            "buffer" : 0,
            "byteLength" : 1344,
            "byteOffset" : 6776
        },
        {
            "buffer" : 0,
            "byteLength" : 896,
            "byteOffset" : 8120
        },
        {
            "buffer" : 0,
            "byteLength" : 336,
            "byteOffset" : 9016
        },
        {
            "buffer" : 0,
            "byteLength" : 2016,
            "byteOffset" : 9352
        },
        {
            "buffer" : 0,
            "byteLength" : 2016,
            "byteOffset" : 11368
        },
        {
            "buffer" : 0,
            "byteLength" : 1344,
            "byteOffset" : 13384
        },
        {
            "buffer" : 0,
            "byteLength" : 552,
            "byteOffset" : 14728
        },
        {
            "buffer" : 0,
            "byteLength" : 1344,
            "byteOffset" : 15280
        },
        {
            "buffer" : 0,
            "byteLength" : 1344,
            "byteOffset" : 16624
        },
        {
            "buffer" : 0,
            "byteLength" : 896,
            "byteOffset" : 17968
        },
        {
            "buffer" : 0,
            "byteLength" : 2016,
            "byteOffset" : 18864
        },
        {
            "buffer" : 0,
            "byteLength" : 2016,
            "byteOffset" : 20880
        },
        {
            "buffer" : 0,
            "byteLength" : 1344,
            "byteOffset" : 22896
        },
        {
            "buffer" : 0,
            "byteLength" : 1344,
            "byteOffset" : 24240
        },
        {
            "buffer" : 0,
            "byteLength" : 1344,
            "byteOffset" : 25584
        },
        {
            "buffer" : 0,
            "byteLength" : 896,
            "byteOffset" : 26928
        },
        {
            "buffer" : 0,
            "byteLength" : 2016,
            "byteOffset" : 27824
        },
        {
            "buffer" : 0,
            "byteLength" : 2016,
            "byteOffset" : 29840
        },
        {
            "buffer" : 0,
            "byteLength" : 1344,
            "byteOffset" : 31856
        },
        {
            "buffer" : 0,
            "byteLength" : 1344,
            "byteOffset" : 33200
        },
        {
            "buffer" : 0,
            "byteLength" : 1344,
            "byteOffset" : 34544
        },
        {
            "buffer" : 0,
            "byteLength" : 896,
            "byteOffset" : 35888
        },
        {
            "buffer" : 0,
            "byteLength" : 2016,
            "byteOffset" : 36784
        },
        {
            "buffer" : 0,
            "byteLength" : 2016,
            "byteOffset" : 38800
        },
        {
            "buffer" : 0,
            "byteLength" : 1344,
            "byteOffset" : 40816
        }
    ],
    "buffers" : [
        {
            "byteLength" : 42160,
            "uri" : "data:application/octet-stream;base64,"
        }
    ]
}
