{
    "asset" : {
        "generator" : "Khronos glTF Blender I/O v1.2.75",
        "version" : "2.0"
    },
    "scene" : 0,
    "scenes" : [
        {
            "name" : "Scene",
            "nodes" : [
                0,
                1,
                2,
                3
            ]
        }
    ],
    "nodes" : [
        {
            "mesh" : 0,
            "name" : "Blade"
        },
        {
            "mesh" : 1,
            "name" : "Grip"
        },
        {
            "mesh" : 2,
            "name" : "Pommel",
            "translation" : [
                0,
                -0.17000000178813934,
                0
            ]
        },
        {
            "mesh" : 3,
            "name" : "Cross-guard"
        }
    ],
    "meshes" : [
        {
            "name" : "Cube.001",
            "primitives" : [
                {
                    "attributes" : {
                        "POSITION" : 0,
                        "NORMAL" : 1,
                        "TEXCOORD_0" : 2
                    },
                    "indices" : 3
                }
            ]
        },
        {
            "name" : "Cube.002",
            "primitives" : [
                {
                    "attributes" : {
                        "POSITION" : 4,
                        "NORMAL" : 5,
                        "TEXCOORD_0" : 6
                    },
                    "indices" : 7
                }
            ]
        },
        {
            "name" : "Sphere",
            "primitives" : [
                {
                    "attributes" : {
                        "POSITION" : 8,
                        "NORMAL" : 9,
                        "TEXCOORD_0" : 10
                    },
                    "indices" : 11
                }
            ]
        },
        {
            "name" : "Cube.003",
            "primitives" : [
                {
                    "attributes" : {
                        "POSITION" : 12,
                        "NORMAL" : 13,
                        "TEXCOORD_0" : 14
                    },
                    "indices" : 15
                }
            ]
        }
    ],
    "accessors" : [
        {
            "bufferView" : 0,
            "componentType" : 5126,
            "count" : 152,
            "max" : [
                0.03555303439497948,
                0.699999988079071,
                0.007951704785227776
            ],
            "min" : [
                -0.03555303439497948,
                -0.009999990463256836,
                -0.007951704785227776
            ],
            "type" : "VEC3"
        },
        {
            "bufferView" : 1,
            "componentType" : 5126,
            "count" : 152,
            "type" : "VEC3"
        },
        {
            "bufferView" : 2,
            "componentType" : 5126,
            "count" : 152,
            "type" : "VEC2"
        },
        {
            "bufferView" : 3,
            "componentType" : 5123,
            "count" : 240,
            "type" : "SCALAR"
        },
        {
            "bufferView" : 4,
            "componentType" : 5126,
            "count" : 55,
            "max" : [
                0.02395947277545929,
                -0.013333328068256378,
                0.01285138726234436
            ],
            "min" : [
                -0.02395947277545929,
                -0.1666666567325592,
                -0.01285138726234436
            ],
            "type" : "VEC3"
        },
        {
            "bufferView" : 5,
            "componentType" : 5126,
            "count" : 55,
            "type" : "VEC3"
        },
        {
            "bufferView" : 6,
            "componentType" : 5126,
            "count" : 55,
            "type" : "VEC2"
        },
        {
            "bufferView" : 7,
            "componentType" : 5123,
            "count" : 90,
            "type" : "SCALAR"
        },
        {
            "bufferView" : 8,
            "componentType" : 5126,
            "count" : 112,
            "max" : [
                0.032400064170360565,
                0.0323999747633934,
                0.022499563172459602
            ],
            "min" : [
                -0.03239995613694191,
                -0.03240002691745758,
                -0.022499481216073036
            ],
            "type" : "VEC3"
        },
        {
            "bufferView" : 9,
            "componentType" : 5126,
            "count" : 112,
            "type" : "VEC3"
        },
        {
            "bufferView" : 10,
            "componentType" : 5126,
            "count" : 112,
            "type" : "VEC2"
        },
        {
            "bufferView" : 11,
            "componentType" : 5123,
            "count" : 144,
            "type" : "SCALAR"
        },
        {
            "bufferView" : 12,
            "componentType" : 5126,
            "count" : 43,
            "max" : [
                0.1061835065484047,
                0,
                0.014512366615235806
            ],
            "min" : [
                -0.1061835065484047,
                -0.01600389927625656,
                -0.014512366615235806
            ],
            "type" : "VEC3"
        },
        {
            "bufferView" : 13,
            "componentType" : 5126,
            "count" : 43,
            "type" : "VEC3"
        },
        {
            "bufferView" : 14,
            "componentType" : 5126,
            "count" : 43,
            "type" : "VEC2"
        },
        {
            "bufferView" : 15,
            "componentType" : 5123,
            "count" : 78,
            "type" : "SCALAR"
        }
    ],
    "bufferViews" : [
        {
            "buffer" : 0,
            "byteLength" : 1824,
            "byteOffset" : 0
        },
        {
            "buffer" : 0,
            "byteLength" : 1824,
            "byteOffset" : 1824
        },
        {
            "buffer" : 0,
            "byteLength" : 1216,
            "byteOffset" : 3648
        },
        {
            "buffer" : 0,
            "byteLength" : 480,
            "byteOffset" : 4864
        },
        {
            "buffer" : 0,
            "byteLength" : 660,
            "byteOffset" : 5344
        },
        {
            "buffer" : 0,
            "byteLength" : 660,
            "byteOffset" : 6004
        },
        {
            "buffer" : 0,
            "byteLength" : 440,
            "byteOffset" : 6664
        },
        {
            "buffer" : 0,
            "byteLength" : 180,
            "byteOffset" : 7104
        },
        {
            "buffer" : 0,
            "byteLength" : 1344,
            "byteOffset" : 7284
        },
        {
            "buffer" : 0,
            "byteLength" : 1344,
            "byteOffset" : 8628
        },
        {
            "buffer" : 0,
            "byteLength" : 896,
            "byteOffset" : 9972
        },
        {
            "buffer" : 0,
            "byteLength" : 288,
            "byteOffset" : 10868
        },
        {
            "buffer" : 0,
            "byteLength" : 516,
            "byteOffset" : 11156
        },
        {
            "buffer" : 0,
            "byteLength" : 516,
            "byteOffset" : 11672
        },
        {
            "buffer" : 0,
            "byteLength" : 344,
            "byteOffset" : 12188
        },
        {
            "buffer" : 0,
            "byteLength" : 156,
            "byteOffset" : 12532
        }
    ],
    "buffers" : [
        {
            "byteLength" : 12688,
            "uri" : "data:application/octet-stream;base64,"
        }
    ]
}
